<?xml version="1.0" encoding="UTF-8"?>
<svg id="Layer_2" data-name="Layer 2" xmlns="http://www.w3.org/2000/svg" viewBox="0 0 206.37 42.34">
  <defs>
    <style>
      .cls-1 {
        fill: #2f75b6;
        stroke-width: 0px;
      }
    </style>
  </defs>
  <g id="Layer_1-2" data-name="Layer 1">
    <g>
      <g>
        <path class="cls-1" d="m6.53,10.21v2.53c0,5.89,1.7,9.7,5.18,9.7,2.59,0,4.67-2.69,6.46-6.85h.58l-.22,7.14h-.35c-.22-.42-.35-.64-.87-.64-1.09,0-2.85.99-6.37.99-6.78,0-10.94-3.58-10.94-11.23S4.48,0,11.04,0c3.33,0,4.86.99,5.98.99.51,0,.64-.22.86-.64h.35l.26,6.94h-.58c-1.76-3.94-3.68-6.66-6.43-6.66-3.23,0-4.96,2.94-4.96,9.57Z"/>
        <path class="cls-1" d="m38.08.35l.32,6.34h-.58c-1.76-4.19-3.26-5.63-7.13-5.63h-1.12v9.89h1.09c2.08,0,3.42-1.76,3.97-4.19h.48v9.47h-.54c-.77-3.2-1.98-4.45-4.22-4.45h-.77v10.27h1.22c4.06,0,6.88-2.78,7.84-6.27h.64l-.26,6.98h-17.57v-.7h1.89V1.06h-1.89V.35h16.64Z"/>
        <path class="cls-1" d="m49.54,11.42v10.72h2.08v.61h-10.4v-.61h2.08V.96h-2.08V.35h9.66c6.69,0,9.89.7,9.89,5.38,0,3.9-2.05,5.06-5.44,5.34v.1c3.46.45,4.64,1.79,4.64,5.5v1.7c0,2.08.1,2.82.99,2.82.58,0,1.05-.26,1.47-2.75l.54.06c-.48,3.65-1.38,4.58-4.35,4.58-4.03,0-5.22-1.34-5.22-5.86v-2.34c0-2.27-.45-3.46-2.18-3.46h-1.7Zm0-.61h1.02c2.37,0,3.58-1.31,3.58-4.77v-.93c0-3.58-1.31-4.16-3.55-4.16h-1.06v9.86Z"/>
        <path class="cls-1" d="m82.72,8.38h-.61c-1.73-5.22-2.72-7.36-5.63-7.36h-.38v21.05h2.72v.67h-11.68v-.67h2.72V1.02h-.42c-2.91,0-4,2.4-5.63,7.36h-.61l.32-8.03h18.88l.32,8.03Z"/>
        <path class="cls-1" d="m94.46.35v.61h-1.76v21.18h1.76v.61h-9.76v-.61h1.76V.96h-1.76V.35h9.76Z"/>
        <path class="cls-1" d="m112.57.35l.32,6.66h-.58c-1.57-4.61-3.26-5.95-7.36-5.95h-.9v10.4h1.44c2.08,0,3.46-1.63,3.97-4.19h.48v9.47h-.54c-.7-3.23-1.82-4.45-3.9-4.45h-1.44v9.76h3.97v.7h-12.09v-.7h1.89V1.06h-1.89V.35h16.64Z"/>
        <path class="cls-1" d="m124.77.35v.61h-1.76v21.18h1.76v.61h-9.76v-.61h1.76V.96h-1.76V.35h9.76Z"/>
        <path class="cls-1" d="m133.41,10.21v2.53c0,5.89,1.7,9.7,5.18,9.7,2.59,0,4.67-2.69,6.46-6.85h.58l-.22,7.14h-.35c-.22-.42-.35-.64-.86-.64-1.09,0-2.85.99-6.37.99-6.78,0-10.94-3.58-10.94-11.23s4.48-11.84,11.04-11.84c3.33,0,4.86.99,5.98.99.51,0,.64-.22.86-.64h.35l.26,6.94h-.58c-1.76-3.94-3.68-6.66-6.43-6.66-3.23,0-4.96,2.94-4.96,9.57Z"/>
        <path class="cls-1" d="m158.5,15.23h-6.34l-2.46,6.91h2.4v.61h-4.9v-.61h1.5L156.86.16h2.62l8.06,21.98h1.47v.61h-10.46v-.61h2.27l-2.34-6.91Zm-6.05-.7h5.79l-2.78-8.38-3.01,8.38Z"/>
        <path class="cls-1" d="m186.69,8.38h-.61c-1.73-5.22-2.72-7.36-5.63-7.36h-.38v21.05h2.72v.67h-11.68v-.67h2.72V1.02h-.42c-2.91,0-4,2.4-5.63,7.36h-.61l.32-8.03h18.88l.32,8.03Z"/>
        <path class="cls-1" d="m205.18.35l.32,6.34h-.58c-1.76-4.19-3.26-5.63-7.14-5.63h-1.12v9.89h1.09c2.08,0,3.42-1.76,3.97-4.19h.48v9.47h-.54c-.77-3.2-1.98-4.45-4.22-4.45h-.77v10.27h1.22c4.06,0,6.88-2.78,7.84-6.27h.64l-.26,6.98h-17.57v-.7h1.89V1.06h-1.89V.35h16.64Z"/>
      </g>
      <g>
        <path class="cls-1" d="m16.38,31.19c3.32,0,5.01,2.04,5.01,5.55s-1.62,5.6-5.19,5.6-5.1-1.99-5.1-5.39,1.84-5.75,5.29-5.75Zm1.82,5.07c0-3.17-.09-4.75-1.95-4.75s-1.99,1.64-1.99,4.81v1.11c0,2.91.19,4.58,1.99,4.58s1.95-1.5,1.95-4.61v-1.14Z"/>
        <path class="cls-1" d="m33.48,31.36l.15,3.21h-.28c-.76-2.23-1.58-2.88-3.56-2.88h-.43v5.02h.7c1,0,1.67-.79,1.92-2.02h.23v4.58h-.26c-.34-1.56-.88-2.15-1.88-2.15h-.7v4.71h1.92v.34h-5.84v-.34h.91v-10.14h-.91v-.34h8.04Z"/>
        <path class="cls-1" d="m48.02,31.36c2.91,0,4.62.65,4.62,3.08,0,2.63-2.03,3.31-5.02,3.31h-.12v4.14h1.93v.29h-5.95v-.29h1v-10.23h-1v-.29h4.54Zm-.53,6.09h.33c1.3,0,1.64-.9,1.64-2.69v-.74c0-1.75-.37-2.37-1.55-2.37h-.42v5.8Z"/>
        <path class="cls-1" d="m59.99,38.55h-3.06l-1.19,3.34h1.16v.29h-2.37v-.29h.73l3.94-10.62h1.27l3.89,10.62h.71v.29h-5.05v-.29h1.1l-1.13-3.34Zm-2.92-.34h2.8l-1.34-4.05-1.45,4.05Z"/>
        <path class="cls-1" d="m72.52,36.71v5.18h1.01v.29h-5.02v-.29h1v-10.23h-1v-.29h4.67c3.23,0,4.78.34,4.78,2.6,0,1.89-.99,2.44-2.63,2.58v.05c1.67.22,2.24.87,2.24,2.66v.82c0,1,.05,1.36.48,1.36.28,0,.51-.12.71-1.33l.26.03c-.23,1.76-.66,2.21-2.1,2.21-1.95,0-2.52-.65-2.52-2.83v-1.13c0-1.1-.22-1.67-1.05-1.67h-.82Zm0-.29h.5c1.14,0,1.73-.63,1.73-2.3v-.45c0-1.73-.63-2.01-1.72-2.01h-.51v4.76Z"/>
        <path class="cls-1" d="m91.64,35.24h-.29c-.83-2.52-1.31-3.56-2.72-3.56h-.19v10.17h1.31v.32h-5.64v-.32h1.31v-10.17h-.2c-1.41,0-1.93,1.16-2.72,3.56h-.29l.15-3.88h9.12l.15,3.88Z"/>
        <path class="cls-1" d="m100.41,31.36v.29h-.85v10.23h.85v.29h-4.71v-.29h.85v-10.23h-.85v-.29h4.71Z"/>
        <path class="cls-1" d="m107.68,36.13v1.22c0,2.84.82,4.68,2.5,4.68,1.25,0,2.26-1.3,3.12-3.31h.28l-.11,3.45h-.17c-.11-.2-.17-.31-.42-.31-.53,0-1.38.48-3.08.48-3.28,0-5.29-1.73-5.29-5.43s2.16-5.72,5.33-5.72c1.61,0,2.35.48,2.89.48.25,0,.31-.11.42-.31h.17l.12,3.35h-.28c-.85-1.9-1.78-3.21-3.11-3.21-1.56,0-2.39,1.42-2.39,4.62Z"/>
        <path class="cls-1" d="m122.76,31.36v.29h-.85v10.23h.85v.29h-4.71v-.29h.85v-10.23h-.85v-.29h4.71Z"/>
        <path class="cls-1" d="m131.02,31.36c2.91,0,4.62.65,4.62,3.08,0,2.63-2.02,3.31-5.02,3.31h-.12v4.14h1.93v.29h-5.95v-.29h1.01v-10.23h-1.01v-.29h4.54Zm-.53,6.09h.32c1.3,0,1.64-.9,1.64-2.69v-.74c0-1.75-.37-2.37-1.54-2.37h-.42v5.8Z"/>
        <path class="cls-1" d="m142.99,38.55h-3.06l-1.19,3.34h1.16v.29h-2.37v-.29h.73l3.94-10.62h1.27l3.89,10.62h.71v.29h-5.05v-.29h1.1l-1.13-3.34Zm-2.92-.34h2.8l-1.34-4.05-1.45,4.05Z"/>
        <path class="cls-1" d="m159.7,35.24h-.29c-.83-2.52-1.31-3.56-2.72-3.56h-.18v10.17h1.31v.32h-5.64v-.32h1.31v-10.17h-.2c-1.41,0-1.93,1.16-2.72,3.56h-.29l.15-3.88h9.12l.15,3.88Z"/>
        <path class="cls-1" d="m168.47,31.36v.29h-.85v10.23h.85v.29h-4.71v-.29h.85v-10.23h-.85v-.29h4.71Z"/>
        <path class="cls-1" d="m177.88,31.19c3.32,0,5.01,2.04,5.01,5.55s-1.62,5.6-5.19,5.6-5.1-1.99-5.1-5.39,1.84-5.75,5.29-5.75Zm1.82,5.07c0-3.17-.09-4.75-1.95-4.75s-1.99,1.64-1.99,4.81v1.11c0,2.91.19,4.58,1.99,4.58s1.95-1.5,1.95-4.61v-1.14Z"/>
        <path class="cls-1" d="m195.74,42.18h-2.16l-5.3-10v9.71h.85v.29h-2.12v-.29h.85v-10.23h-.85v-.29h4.27l4.05,7.76v-7.47h-.85v-.29h2.12v.29h-.85v10.53Z"/>
      </g>
    </g>
  </g>
</svg>