<?xml version="1.0" encoding="UTF-8"?>
<svg id="Layer_2" data-name="Layer 2" xmlns="http://www.w3.org/2000/svg" viewBox="0 0 102.25 42.52">
  <defs>
    <style>
      .cls-1 {
        fill: #f3b044;
      }

      .cls-1, .cls-2, .cls-3, .cls-4, .cls-5, .cls-6, .cls-7, .cls-8, .cls-9, .cls-10, .cls-11, .cls-12, .cls-13, .cls-14, .cls-15, .cls-16 {
        stroke-width: 0px;
      }

      .cls-2 {
        fill: #4ba04d;
      }

      .cls-3 {
        fill: #526d3d;
      }

      .cls-4 {
        fill: #2872b6;
      }

      .cls-5 {
        fill: #3471a5;
      }

      .cls-6 {
        fill: #353350;
      }

      .cls-7 {
        fill: #0b9fbd;
      }

      .cls-8 {
        fill: #c4873b;
      }

      .cls-9 {
        fill: #e34a3b;
      }

      .cls-10 {
        fill: #d8307b;
      }

      .cls-11 {
        fill: #c52033;
      }

      .cls-12 {
        fill: #b8343a;
      }

      .cls-13 {
        fill: #314d71;
      }

      .cls-14 {
        fill: #822e3a;
      }

      .cls-15 {
        fill: #ea6e3b;
      }

      .cls-16 {
        fill: #f29647;
      }
    </style>
  </defs>
  <g id="Layer_1-2" data-name="Layer 1">
    <g>
      <path class="cls-11" d="m69.14,3.63c-.08,0-.15-.07-.15-.15h0v-1.56c0-1.06.84-1.91,1.87-1.91h.05c1.03,0,1.87.86,1.87,1.91v1.56c0,.08-.07.15-.15.15h-3.49Z"/>
      <path class="cls-11" d="m3.98,6.27h4.43c.06,0,.12.05.12.12h0v3.02c0,.06-.05.12-.11.12H3.99c-.06,0-.12.05-.12.12v2.63c0,.06.05.12.12.12h5.91c.06,0,.12.05.12.11h0v3.01c.01.06-.04.12-.1.12H.19c-.06,0-.12-.05-.12-.11V.4c0-.06.05-.12.11-.12h9.42c.06,0,.12.05.12.11v3c-.01.06-.07.12-.13.12H3.99c-.06,0-.12.05-.12.12v2.52c0,.06.05.12.11.12Z"/>
      <path class="cls-11" d="m18.83,4.98V.37c0-.06.03-.08.08-.08l3.49-.03c.09,0,.16.07.16.15,0,0,0,0,0,0v15.05c0,.08-.06.15-.14.15h-3.19c-.09,0-.17-.08-.17-.17,0,0,0,0,0,0l.02-.97c0-.12-.04-.14-.11-.04-.79.96-1.79,1.43-3.01,1.43-1.69,0-2.97-.6-3.85-1.78-2.14-2.89-1.54-8.54,2.4-9.58,1.55-.41,2.97-.23,4.24.53.06.03.09.02.09-.05Zm-2.02,7.82c1.2,0,2.16-1.22,2.15-2.7h0c-.01-1.49-.99-2.68-2.19-2.67h0c-1.2,0-2.16,1.22-2.15,2.7h0c.01,1.49.99,2.68,2.19,2.67h0Z"/>
      <path class="cls-11" d="m61.1,4.63V1.71c0-.08.06-.14.14-.14h3.3c.1,0,.19.08.19.19v2.9c0,.07.04.1.11.1h2.04c.09,0,.16.06.16.15v2.57c0,.11-.08.19-.19.19,0,0,0,0,0,0h-2.02c-.06,0-.09.03-.09.09,0,1.15,0,2.27,0,3.33.01,1.22,1.39,1.39,2.3,1.32.07,0,.14.05.14.12,0,0,0,0,0,.01v3c0,.08-.06.14-.14.14-2.63.21-5.97-.54-6.04-3.87-.03-1.25-.03-2.61-.01-4.08,0-.07-.03-.1-.1-.1l-1.17.03c-.1,0-.15-.04-.15-.14v-2.66c0-.07.05-.13.12-.13,0,0,0,0,0,0l1.27.02c.09,0,.14-.04.14-.14Z"/>
      <path class="cls-11" d="m45.69,8.37c-1.27-1.03-3.24-1.47-4.43-.1-.86.99-.84,2.44-.05,3.49.68.91,1.94,1.19,3,.86.76-.23,1.46-.61,2.08-1.14.04-.03.1-.03.13,0,0,0,0,.01.01.02l1.25,2.4c.04.08.02.18-.04.23-1.32,1.16-2.91,1.73-4.77,1.72-3.71-.03-6.42-2.79-5.97-6.51.45-3.77,3.94-5.59,7.5-4.93,1.13.21,2.11.69,2.94,1.46.04.04.05.1.02.15l-1.42,2.28c-.05.08-.16.11-.24.06,0,0-.01,0-.02-.01Z"/>
      <path class="cls-11" d="m55.25,14.51c0-.14-.03-.16-.13-.05-.23.27-.45.58-.76.76-1.38.81-2.75.88-4.12.22-1.14-.55-1.77-1.5-1.88-2.85-.15-1.84,1.18-2.9,2.78-3.36,1.16-.34,2.28-.5,3.34-.49.42,0,.54-.18.37-.57,0,0-.02-.04-.05-.1-.17-.37-.52-.63-.92-.69-1.24-.18-2.37.27-3.45.92-.07.04-.17.02-.21-.05,0,0,0,0,0-.01l-1.17-2.38c-.03-.06-.01-.14.05-.18,2.12-1.38,5.47-2.01,7.72-.54,1.52,1,1.83,2.47,1.82,4.33-.02,1.99-.02,4,0,6.02,0,.07-.06.13-.13.13h-3.1c-.12,0-.21-.09-.21-.21,0,0,0,0,0-.01l.06-.88Zm-3.06-2.75c-.32.81.44,1.44,1.2,1.22.9-.26,1.42-.89,1.57-1.88.02-.15-.04-.23-.19-.24-.7-.04-2.26.11-2.57.9Z"/>
      <path class="cls-11" d="m86.71,10.09c0,3.22-2.83,5.83-6.32,5.83-3.49,0-6.32-2.61-6.32-5.83h0c0-3.22,2.83-5.83,6.32-5.83h0c3.49,0,6.32,2.61,6.32,5.83Zm-6.28,2.68c1.38-.02,2.49-1.23,2.47-2.72h0c-.02-1.48-1.15-2.67-2.54-2.66-1.38.02-2.49,1.23-2.47,2.72h0c.02,1.48,1.15,2.67,2.54,2.66Z"/>
      <path class="cls-11" d="m91.56,5.91c-.04.25.02.27.16.07,1.04-1.45,2.67-1.89,4.39-1.59,2.22.39,2.96,2.05,2.96,4.07,0,2.14,0,4.35,0,6.61,0,.16-.01.32-.03.48,0,.05-.05.08-.09.08-1.06,0-2.17,0-3.33,0-.06,0-.12-.01-.18-.03-.08-.03-.13-.1-.13-.19.02-2.22.03-4.37,0-6.46,0-.39-.12-.71-.35-.95-.52-.54-1.74-.26-2.19.11-.64.51-.97,1.21-1,2.08-.04,1.47-.05,3.22-.02,5.24,0,.1-.08.19-.19.19,0,0,0,0,0,0h-3.42c-.07,0-.13-.06-.13-.13V4.64c0-.06.03-.09.09-.09h3.37c.05,0,.1.05.1.1.04.46.03.88-.03,1.26Z"/>
      <path class="cls-11" d="m31.83,14.15c-1.05,1.58-3.03,2.02-4.78,1.53-2.13-.59-2.54-2.46-2.52-4.4.02-2.11.02-4.32,0-6.62,0-.06.05-.11.11-.11,0,0,0,0,0,0h3.5c.08,0,.15.07.15.15h0c.02,2,.02,4.04,0,6.12,0,.43.04.78.15,1.05.26.66,1.08.69,1.68.5,1.34-.42,1.67-1.88,1.66-3.18,0-1.4-.01-2.9,0-4.48,0-.09.07-.16.16-.16,0,0,0,0,0,0h3.45c.07,0,.12.06.12.13v10.77c0,.1-.08.18-.18.18h0l-3.31-.02c-.06,0-.11-.05-.11-.11,0,0,0,0,0,0l.04-1.31c0-.13-.03-.15-.11-.03Z"/>
      <path class="cls-4" d="m72.29,37.65c-.43,1.49-.87,3.05-1.33,4.66,0,.03-.04.05-.07.04-.01,0-.02,0-.03-.02-.04-.04-.08-.1-.09-.16-.51-1.87-1.05-3.74-1.6-5.61-.12-.4-.18-.79-.18-1.2,0-10.56,0-20.72,0-30.48,0-.1.05-.14.14-.14h3.54c.06,0,.1.04.1.11,0,10.02,0,20.23-.01,30.64,0,.71-.27,1.45-.48,2.15Z"/>
      <path class="cls-4" d="m2.47,39.97c0,.06.04.12.11.12,0,0,0,0,0,0h11.73c.05,0,.08.03.08.08v1.85s-.05.09-.1.09H.29c-.12,0-.19-.05-.2-.17-.35-2.45.3-4.58,1.93-6.4.74-.82,1.56-1.56,2.46-2.21,1.18-.85,2.34-1.68,3.49-2.48,1.83-1.28,3.7-3.02,3.69-5.44-.02-3.48-3.62-5.07-6.56-3.98-1.25.47-2.42,1.5-3.17,2.68-.04.06-.12.08-.17.04,0,0,0,0,0,0l-1.49-1c-.06-.04-.08-.13-.05-.19.23-.42.5-.8.81-1.15,1.95-2.24,4.39-3.17,7.31-2.77,2.85.39,5.02,2.2,5.56,5.08.7,3.77-1.77,6.52-4.63,8.5-1.15.8-2.29,1.59-3.42,2.4-1.7,1.21-3.25,2.79-3.39,4.96Z"/>
      <path class="cls-4" d="m17.66,23.01c1.34-2.84,3.7-4.13,6.72-4.07,7.05.15,7.82,7.88,7.6,13.27-.15,3.7-1.21,8.64-5.27,9.91-1.35.42-2.76.5-4.22.23-3.53-.65-5.23-3.74-5.82-7.03-.45-2.48-.52-5.06-.22-7.74.2-1.75.6-3.28,1.22-4.58Zm6.91-1.93c-4.16-.25-5.48,3.33-5.8,6.72-.19,2.05-.19,4.05.02,6.02.33,3.15,1.55,6.47,5.22,6.56,3.38.08,4.86-2.54,5.33-5.5.39-2.47.42-5.06.08-7.77-.35-2.78-1.58-5.82-4.85-6.02Z"/>
      <path class="cls-4" d="m62.06,41.34c-2.06,1.44-5.1,1.47-7.24.58-2.97-1.23-4.15-4.58-4.55-7.54-.37-2.74-.33-5.4.1-7.98.5-3,1.93-6.12,5.06-7.09,1.25-.39,2.54-.47,3.88-.26,3.68.59,5.42,3.6,6.06,7.05.46,2.47.51,5.16.24,7.68-.3,2.75-1.17,5.89-3.56,7.56Zm1.02-14.87c-.41-2.39-1.52-4.79-4.08-5.29-1.3-.26-2.82-.07-3.91.75-1.51,1.13-2.19,3.12-2.44,4.98-.31,2.28-.34,4.6-.09,6.98.38,3.64,2.05,7.21,6.47,6.38,3.48-.65,4.19-4.89,4.33-7.77.11-2.27.02-4.28-.28-6.03Z"/>
      <path class="cls-6" d="m88.68,24.18s-.05.08-.1.07c-.52-.07-1.03-.08-1.53-.03-.05,0-.09-.03-.1-.08l-.86-4.96c-.01-.07.03-.14.1-.15,0,0,0,0,0,0,1.12-.14,2.24-.13,3.38.05.06,0,.1.07.1.13,0,0,0,0,0,0l-.99,4.96Z"/>
      <path class="cls-13" d="m85.42,19.37l.83,4.75c.02.12-.05.24-.16.28l-1.11.4c-.11.04-.24,0-.3-.11l-2.4-4.18c-.07-.12-.03-.27.09-.34.01,0,.03-.01.04-.02l2.68-.97c.13-.05.27.02.32.15,0,.01,0,.03.01.04Z"/>
      <path class="cls-9" d="m93.42,20.66l-2.45,4.08c-.07.12-.22.17-.35.12l-1.06-.4c-.13-.05-.21-.19-.18-.32l.92-4.67c.03-.16.18-.26.33-.23.02,0,.03,0,.05.01l2.59,1c.15.06.22.22.16.37,0,.02-.01.03-.02.04Z"/>
      <path class="cls-4" d="m44.6,21.26c-.28,0-.58.08-.85.09-2.94.03-6.06.03-9.35.01-.04,0-.07-.03-.07-.07l-.03-1.89s.03-.06.06-.06h13.22s.06.01.06.06c0,.31,0,.64.02.98s-.07.53-.3.8c-2.24,2.59-4.38,5.05-6.42,7.39-.02.02-.02.05,0,.07,0,0,.02.01.03.01,3.04.27,6.02,1.78,6.79,4.95.29,1.18.29,2.31,0,3.42-1.09,4.25-5.32,6.24-9.52,5.22-1.83-.44-3.45-1.34-4.86-2.69-.11-.1-.11-.21-.02-.32l1.11-1.43c.06-.08.17-.09.25-.03,0,0,.01,0,.02.01,1.42,1.42,3.25,2.41,5.24,2.54,1.26.08,2.35-.17,3.27-.76,1.96-1.26,2.71-3.04,2.23-5.36-.41-1.98-2.47-3.27-4.34-3.52-.8-.11-1.67-.14-2.61-.09-.11,0-.21-.06-.25-.16l-.44-1.08c-.03-.07-.02-.15.03-.21,2.28-2.71,4.5-5.33,6.75-7.81.02-.02.02-.05,0-.07,0,0-.02-.01-.03-.01Z"/>
      <path class="cls-2" d="m82.76,26.07l-3.6-3.04c-.12-.11-.14-.29-.04-.42.01-.01.02-.03.04-.04l2.1-1.75c.13-.1.31-.09.42.04.01.01.02.03.03.04l2.35,4.09c.07.13.04.29-.07.38l-.85.7c-.11.09-.27.09-.38,0Z"/>
      <path class="cls-8" d="m91.57,25.08l2.44-4.06c.08-.13.25-.18.38-.1.01,0,.03.02.04.03l2.09,1.82c.12.1.13.28.03.39-.01.01-.02.02-.04.03l-3.72,3c-.11.09-.26.08-.37-.01l-.81-.76c-.1-.09-.12-.23-.05-.35Z"/>
      <path class="cls-5" d="m78.66,23.52l3.71,3.12c.09.07.11.2.05.3l-.61,1.05c-.06.1-.18.14-.28.1l-4.54-1.68c-.12-.04-.18-.18-.14-.3,0-.01.01-.02.02-.04l1.45-2.49c.06-.11.21-.15.32-.08.01,0,.02.01.03.02Z"/>
      <path class="cls-2" d="m98.6,26.64l-4.56,1.57c-.11.04-.23,0-.29-.11l-.58-1.04c-.06-.1-.03-.23.06-.3l3.76-3.04c.1-.08.25-.07.34.04,0,.01.02.02.02.04l1.38,2.5c.06.12.02.26-.1.33-.01,0-.02.01-.04.02Z"/>
      <path class="cls-12" d="m101.44,34.84l-7.26-2.38c-.06-.02-.1-.08-.08-.15.28-1.12.26-2.23-.05-3.33,0-.03,0-.05.03-.06l7.32-2.51c.07-.02.15.01.17.08,0,0,0,0,0,0,.87,2.72.89,5.47.07,8.24-.03.09-.12.14-.2.11,0,0,0,0,0,0Zm-3.03-2.58l-.04.4c-.01.11.04.17.15.17h.38c.09.01.13-.03.14-.12v-.39c.01-.06.04-.11.09-.15l.18-.14c.1-.08.12-.24.04-.34-.01-.02-.03-.03-.05-.05l-.16-.11s-.07-.08-.07-.14v-2.78c0-.07-.03-.12-.1-.14-.38-.12-.63-.01-.75.31-.34.88-.73,1.88-1.16,3-.05.13.01.27.14.32.03.01.06.02.09.02h1.01c.08,0,.14.06.14.13,0,0,0,.01,0,.02Z"/>
      <path class="cls-3" d="m76.76,27.06l4.51,1.66c.11.04.18.15.16.27l-.19,1.15c-.02.12-.12.21-.24.21h-4.83c-.14,0-.25-.11-.25-.25,0-.01,0-.03,0-.04l.51-2.81c.02-.13.15-.22.29-.2.01,0,.03,0,.04.01Z"/>
      <path class="cls-14" d="m97.99,30.73c.09-.24.17-.55.3-.76.06-.1.09-.09.1.02.02.48,0,.96-.03,1.44,0,.08-.05.12-.13.12h-.32c-.12.01-.16-.04-.13-.16.06-.21.13-.44.21-.67Z"/>
      <path class="cls-8" d="m76.15,31.04h4.85c.11,0,.21.08.23.19l.2,1.21c.02.11-.04.22-.15.26l-4.56,1.66c-.12.04-.25-.02-.3-.14,0-.01,0-.03-.01-.04l-.49-2.87c-.02-.13.06-.25.19-.27.01,0,.03,0,.04,0Z"/>
      <path class="cls-9" d="m96.92,37.74l-3.68-2.98c-.11-.09-.14-.25-.07-.37l.6-1.08c.07-.12.21-.18.35-.14l4.5,1.46c.15.05.24.21.19.37,0,.02-.01.03-.02.05l-1.42,2.6c-.08.14-.26.2-.4.12-.02,0-.03-.02-.04-.03Z"/>
      <path class="cls-16" d="m76.95,35.01l4.57-1.67c.1-.04.22,0,.27.1l.67,1.17c.05.09.03.21-.05.28l-3.68,3.18c-.09.08-.23.07-.31-.02,0-.01-.02-.02-.02-.03l-1.56-2.67c-.06-.11-.03-.24.08-.3.01,0,.02-.01.03-.02Z"/>
      <path class="cls-7" d="m92.8,35.28l3.7,3.02c.11.09.13.26.04.37,0,.01-.02.02-.03.03l-2.12,1.82c-.11.1-.28.08-.37-.03,0-.01-.02-.02-.03-.04l-2.46-4.1c-.07-.11-.04-.25.06-.34l.88-.75c.1-.08.24-.08.34,0Z"/>
      <path class="cls-10" d="m79.24,38.56l3.61-3.13c.1-.08.24-.09.34,0l.89.73c.1.08.13.22.06.33l-2.32,4.18c-.07.13-.23.17-.36.1-.01,0-.03-.02-.04-.03l-2.18-1.78c-.11-.09-.13-.26-.04-.37,0-.01.02-.02.03-.03Z"/>
      <path class="cls-1" d="m90.28,42.03l-.91-4.73c-.02-.12.04-.24.16-.29l1.08-.41c.12-.04.25,0,.31.11l2.48,4.13c.07.12.03.28-.09.35-.01,0-.03.01-.04.02l-2.64,1.01c-.13.05-.28-.02-.33-.15,0-.01,0-.03-.01-.04Z"/>
      <path class="cls-15" d="m82.42,41.01l2.34-4.21c.06-.11.19-.16.31-.12l1.12.38c.12.04.19.16.17.28l-.77,4.76c-.02.14-.15.24-.29.21-.01,0-.03,0-.04-.01l-2.68-.93c-.13-.05-.21-.19-.16-.33,0-.01.01-.03.02-.04Z"/>
      <path class="cls-14" d="m88.69,37.39l.93,4.82c.02.11-.05.22-.16.24-.01,0-.02,0-.04,0l-2.96.05c-.11,0-.21-.09-.21-.2,0-.01,0-.02,0-.04l.77-4.84c.02-.1.1-.17.2-.17l1.27-.03c.1,0,.19.07.21.17Z"/>
    </g>
  </g>
</svg>