<?xml version="1.0" encoding="utf-8"?>
<!-- Generator: Adobe Illustrator 28.3.0, SVG Export Plug-In . SVG Version: 6.00 Build 0)  -->
<svg version="1.1" id="Layer_1" xmlns="http://www.w3.org/2000/svg" xmlns:xlink="http://www.w3.org/1999/xlink" x="0px" y="0px"
	 viewBox="0 0 122 50" style="enable-background:new 0 0 122 50;" xml:space="preserve">
<style type="text/css">
	.st0{fill:#21201F;stroke:#21201F;stroke-width:0.75;stroke-miterlimit:10;}
</style>
<g>
	<g>
		<path class="st0" d="M110.2,38.6c-0.1-0.2-0.6-0.3-0.9-0.2c-0.9,0.2-2-0.5-2.1-1.4c0-1.2-0.5-2.4,0.1-3.6c0.3-0.7-0.5-1.5-1.2-1.3
			c-1.3,0.5-1.9,1.7-2.3,2.9c-0.3,0.9,0,1.8,0.8,2.5c0.1,0.1,0,0.6-0.1,0.7c-1.1,0.4-2.1,0.6-3.2,0.1c-1.3-0.6-2.4-1.7-4.1-1.2
			c-1.3,0.3-2.6,0.2-3.9,0.5c-1.7,0.4-3.3,0.9-5.1,1.5c-0.1-0.4-0.3-0.9-0.4-1.3c-0.4-1.2-0.9-2.4-1.4-3.5c-0.1-0.2-0.5-0.3-0.8-0.3
			c-0.8,0-0.9,0.7-0.9,1.3c-0.2,1.9-1.5,2.9-3,3.8c-0.6,0.4-1.2,0.3-1.4-0.7c-0.2-0.7-0.4-1.5-0.7-2.2c-0.2-0.5-0.5-1.1-1-1.5
			c-0.3-0.3-0.9-0.5-1.3-0.3c-0.5,0.2-0.6,0.7-0.2,1.2c0.3,0.4,0.6,1,0,1.4c-1.2,0.9-2.2,2.1-3.8,2.1c-0.2,0-0.5,0.1-0.6,0.3
			c-0.3,0.6-0.7,0.4-1,0.2c-1.8-1-3.6-2.1-5.4-3.2c-0.6-0.4-1.2-0.4-1.5,0.4c-0.2,0.5-0.3,1.1-0.7,1.5c-1,1.1-1.9,2.3-3.5,2.6
			c-0.9,0.2-1.6,0.1-2.2-0.5c-0.7-0.7-1-1.4-0.4-2.4c0.9-1.6-0.1-3.4-2.1-3.5c-1.4-0.1-2.4,0.7-3.4,1.4c-1.6,1.3-3,3.8-2.4,5.9
			c0.2,0.7,0.4,1.4,1.1,1.5c0.9,0.1,1.8,0.1,2.5-0.6c0.6-0.6,1.3-1,1.9-1.6c0.6-0.5,0.9-0.3,1.4,0.2c0.7,0.7,1.5,1.4,2.6,1.2
			c2.5-0.4,4.5-1.5,5.8-3.7c0.3-0.5,0.6-0.9,1.2-0.3c0.3,0.2,0.6,0.4,0.9,0.5c1.2,0.5,2,1.5,3.3,1.9c1.8,0.5,3.2-0.2,4.7-0.9
			c1-0.5,1.9-1.3,2.9-2c0.1,2,1.6,3,3.3,2.4c1.6-0.6,2.8-1.8,3.8-3.2c0.6,1.1,1.2,2.1,1.7,3.2c0.4,0.8,0.9,0.7,1.5,0.5
			c0.6-0.2,1.1-0.7,1.7-0.8c1.6-0.4,3.2-1,4.9-1.1c1.3-0.1,2.6-0.3,3.9,0.3c0.9,0.5,2,0.8,3,1c1.2,0.2,2.4,0.1,3.5-0.5
			c0.5-0.2,0.8-0.6,1.4-0.1c0.5,0.4,1.2,0.6,1.8,0.8c0.4,0.1,1,0,1.1-0.3C110.4,39.5,110.3,39,110.2,38.6z M56.6,37.8
			c-1.1,1.2-2.3,2.3-3.5,3.4c-0.3,0.2-0.9,0.6-0.9,0.5c-0.3-0.3-0.5-0.8-0.6-1c0.4-1.7,1-3,2.3-4c0.5-0.3,1-0.5,1.5-0.8
			c0.7-0.4,1.3-0.1,1.5,0.5C57,36.8,56.9,37.5,56.6,37.8z"/>
		<path class="st0" d="M59.3,2.5c1.9-0.3,3.9-0.7,5.9-0.7c4.6-0.2,9.1-0.1,13.5,1.3c2.3,0.7,4.7,1.3,6.7,2.8c1.3,1,2.4,2.2,2.4,4.1
			c0.8-0.1,1-0.6,0.9-1.2c-0.9-3.7-4.7-4.9-7.9-6c-6.3-2.1-13-2.2-19.5-1.3c-6,0.6-11.8,2-17.5,3.9c-3.3,1.1-6.5,2.1-9.6,3.7
			c-2.7,1.5-5.5,2.7-8.1,4.3c-2.3,1.4-4.4,3-6.4,4.7c-2.5,2-4.9,4.2-6.4,7.1c0,0-1.2,1.5-1.4,1.8c-0.2,0.3-0.1,0.7-0.1,1
			c0.2,0,0.3,0.1,0.5,0.1c0.2-0.5,1.3-2.7,1.3-2.8c1.5-2.1,2.8-4.2,4.9-5.8c2.4-1.8,4.8-3.8,7.3-5.4c1.8-1.2,3.7-2.1,5.7-3
			c2.4-1.2,4.9-2.4,7.4-3.3c3.1-1.1,6.3-2,9.5-3C51.8,3.9,55.5,2.9,59.3,2.5z"/>
		<path class="st0" d="M50.6,24.6c0-0.1,0-0.1,0-0.2c0.1-2.2,0.2-4.3,0.4-6.5c0-0.7,0.1-1.4,0.2-2.4c0.4,0.3,0.5,0.4,0.6,0.5
			c0.1,0.1,0.3,0.2,0.6,0.5c-0.2-0.8-0.2-1.3-0.5-1.7c-0.3-0.4-0.9-0.7-1.4-1c-0.1-0.1-0.4,0.1-0.5,0.2c-0.1,0.5-0.3,0.9-0.3,1.4
			c0,1.3,0,2.6,0,3.9c-0.2,2.8-0.4,5.7-0.6,8.5c-0.1,1.5-0.3,3.1-0.4,4.6c-0.2,1.8-0.4,3.6-0.7,5.4c-0.2,1.3-0.5,2.6-0.9,3.9
			c-0.2,0.9-0.7,1.7-0.9,2.5c-0.1,0.3,0.3,0.7,0.5,1.1c0.3-0.2,0.9-0.3,1-0.6c0.4-1,0.8-2,1-3c0.3-1.2,0.5-2.4,0.7-3.6
			c0.3-2,0.6-4,0.7-6C50.4,29.7,50.4,27.1,50.6,24.6z"/>
		<path class="st0" d="M89.3,45.8c-0.9-0.1-1.3,0.4-0.9,1.2c0.2,0.4,0.4,0.8,0.7,1c0.4,0.4,0.9,0.6,1.4,1c0.1-0.5,0.2-1,0.3-1.5
			C90.9,46.1,90.7,46,89.3,45.8z"/>
		<path class="st0" d="M86.5,29.8c-0.1,0.1-0.1,0.3-0.2,0.4c0.6,0.6,1.2,1.3,1.8,1.9c0.3,0.2,0.8,0.3,1.1-0.4c0.4-1.1-0.4-1.6-1-1.9
			C87.9,29.5,87.1,29.8,86.5,29.8z"/>
		<path class="st0" d="M96.1,46.7c0.4,0.7,0.5,1.7,1.4,1.3c0.8-0.4,0.5-1.1,0-1.8C97,46.3,96.6,46.5,96.1,46.7z"/>
	</g>
</g>
</svg>
