<?xml version="1.0" encoding="UTF-8"?>
<svg id="Layer_2" data-name="Layer 2" xmlns="http://www.w3.org/2000/svg" viewBox="0 0 145.19 95.17">
  <defs>
    <style>
      .cls-1 {
        fill: #0074bc;
        stroke-width: 0px;
      }
    </style>
  </defs>
  <g id="Layer_1-2" data-name="Layer 1">
    <g>
      <path class="cls-1" d="m127.74,30.33c-1.19,2.15-2.83,4.01-4.9,5.27-.52.3-.97.59-1.49.82l1.93,4.9,11.21-4.46c-1.04-2.23-2.6-4.09-4.6-5.35-.67-.45-1.41-.82-2.15-1.11v-.07Zm-5.5,4.23c1.78-1.11,3.34-2.67,4.38-4.6-1.11-.37-2.38-.52-3.64-.52-.82,0-1.63.07-2.45.22-.82.15-1.56.37-2.3.67l-.6.22-.22-.59-3.64-9.21-.22-.59.59-.22c.82-.3,1.71-.59,2.52-.74.89-.15,1.78-.22,2.67-.22,2.52,0,4.9.67,6.98,1.86,1.34.74,2.52,1.78,3.57,2.97-.08-1.56.07-3.12.44-4.6.6-2.3,1.86-4.46,3.64-6.24.67-.59,1.34-1.19,2.08-1.71.74-.52,1.49-.89,2.38-1.26l.52-.22.22.52,3.86,9.14.22.59-.6.22c-.74.3-1.49.67-2.15,1.12-.67.45-1.34.97-1.86,1.56-.97.97-1.78,2.01-2.38,3.19-.6,1.19-1.04,2.45-1.26,3.71-.15,1.11-.22,2.15-.15,3.27.08,1.04.3,2.15.67,3.12l.29.67h0q0,.07.07.15h-.07.07c.3.82.52,1.64.74,2.45.15.82.22,1.71.22,2.6,0,3.86-1.56,7.28-4.08,9.8-2.52,2.52-6.02,4.09-9.8,4.09s-7.28-1.56-9.8-4.09c-2.52-2.53-4.08-6.02-4.08-9.8,0-1.11.15-2.15.37-3.19.22-1.04.6-2.01,1.11-2.97l.29-.52.52.22c.6.3,1.26.52,1.93.59.74.15,1.49.22,2.23.22,2.45,0,4.75-.67,6.76-1.93l-.07.07Zm-2.01,2.3c-1.49.52-3.12.82-4.76.82-.82,0-1.63-.07-2.45-.22-.59-.15-1.12-.3-1.63-.45-.29.67-.52,1.41-.74,2.15-.22.96-.37,1.93-.37,2.9,0,1.41.22,2.82.67,4.16l11.21-4.46-1.93-4.9Zm-8.84,10.47c.67,1.41,1.49,2.67,2.6,3.71,1.26,1.26,2.82,2.3,4.61,2.9,1.19-2.15,2.82-3.94,4.83-5.2.37-.22.82-.52,1.26-.74l-2.08-5.2-11.22,4.46v.07Zm8.32,6.98c1.04.3,2.08.45,3.19.45,1.41,0,2.83-.22,4.16-.67l-1.93-4.9c-.37.15-.74.37-1.04.59-1.78,1.11-3.27,2.67-4.31,4.53h-.08Zm8.47-.74c1.41-.67,2.67-1.48,3.72-2.6.81-.82,1.56-1.78,2.08-2.82-.37-.07-.74-.15-1.04-.22-.74-.15-1.41-.15-2.15-.15-1.56,0-3.12.3-4.61.82l2.01,4.9v.07Zm6.39-6.46c.67-1.56,1.04-3.27,1.04-5.05,0-.82-.07-1.56-.22-2.38-.15-.59-.29-1.19-.44-1.78l-11.21,4.46,2.08,5.12c1.56-.59,3.27-.97,5.05-.97.82,0,1.56.07,2.38.22.44.07.96.22,1.41.3l-.07.07Zm-4.09-16.71c.67.45,1.34.97,1.93,1.56l-1.93-4.68v-.07c-.07-.15-.07-.3-.15-.45,0-.15-.07-.22-.07-.37-1.12-1.93-2.75-3.49-4.61-4.61-1.93-1.11-4.08-1.71-6.39-1.71-.82,0-1.63.07-2.45.22-.59.15-1.19.3-1.78.45l3.2,8.1c.67-.22,1.33-.37,2.01-.52.89-.15,1.78-.22,2.67-.22,2.83,0,5.42.82,7.58,2.23v.07Zm1.12-3.64l2.01,4.83c0-.67.07-1.41.22-2.08.22-1.41.67-2.75,1.41-4.08.67-1.26,1.49-2.45,2.6-3.49.67-.59,1.34-1.19,2.08-1.71.59-.37,1.19-.74,1.78-1.04l-3.42-8.02c-.52.3-1.12.59-1.56.89-.67.45-1.34.97-1.86,1.56-1.63,1.63-2.75,3.57-3.34,5.72-.59,2.15-.59,4.38,0,6.61,0,.15.08.22.08.37.07.15.07.22.07.37l-.07.08Zm-22.65,57.34l.67-.08c0,.3.07.45.22.67.15.15.3.3.52.37.22.07.52.15.81.15s.52-.07.67-.15c.22-.08.37-.22.45-.3.07-.15.15-.3.15-.45s-.08-.3-.15-.45c-.08-.15-.22-.22-.45-.3-.15-.07-.45-.15-.89-.22-.45-.15-.82-.22-1.04-.3-.22-.15-.44-.3-.52-.52-.15-.22-.15-.45-.15-.67,0-.3.07-.52.22-.74.15-.22.37-.37.67-.52.3-.15.6-.15.97-.15s.74.08,1.04.22c.3.15.52.3.67.52.15.22.22.52.22.82l-.67.08c0-.3-.15-.59-.37-.74-.22-.15-.52-.22-.89-.22-.45,0-.74.08-.89.22-.22.15-.3.37-.3.52,0,.22.08.37.22.45.15.15.45.22,1.04.37.6.15.97.22,1.19.3.3.15.52.3.67.52.15.22.22.45.22.74s-.08.52-.22.82c-.15.22-.37.45-.67.59-.29.15-.59.22-1.04.22s-.89-.08-1.19-.22c-.3-.15-.59-.37-.74-.59-.15-.3-.29-.59-.29-.97h-.15Zm7.65.3l.59.07c-.07.45-.22.74-.52,1.04-.3.22-.59.37-1.04.37-.52,0-.97-.15-1.26-.52-.29-.37-.44-.82-.44-1.49,0-.37.07-.74.22-1.04.15-.3.37-.52.6-.67.29-.15.59-.22.89-.22.45,0,.74.07,1.04.3.3.22.45.52.52.89l-.59.07c-.08-.22-.15-.45-.3-.59-.15-.15-.3-.22-.52-.22-.3,0-.6.15-.82.37-.22.22-.3.59-.3,1.11s.08.89.3,1.11c.22.22.45.37.74.37.22,0,.45-.07.6-.22.15-.15.3-.37.3-.74Zm1.34,1.41v-5.2h.67v1.86c.3-.37.67-.52,1.11-.52.3,0,.52.07.74.15.22.07.37.3.44.45.08.22.15.45.15.82v2.38h-.67v-2.38c0-.3-.07-.52-.22-.67-.15-.15-.3-.22-.6-.22-.22,0-.37.08-.52.15-.15.07-.29.22-.37.37-.07.15-.07.37-.07.67v2.08h-.67v.07Zm4.01-1.86c0-.67.22-1.19.6-1.56.29-.3.74-.45,1.19-.45.52,0,.96.15,1.26.52.3.37.52.82.52,1.41,0,.52-.07.89-.22,1.11-.15.3-.37.52-.67.67-.3.15-.6.22-.89.22-.52,0-.97-.15-1.26-.52-.3-.37-.52-.82-.52-1.49v.07Zm.67,0c0,.52.07.82.29,1.11.22.22.45.37.82.37.29,0,.59-.15.82-.37.22-.22.29-.59.29-1.11,0-.45-.07-.82-.29-1.04-.22-.22-.45-.37-.82-.37-.3,0-.6.15-.82.37-.22.22-.29.59-.29,1.11v-.07Zm3.56,0c0-.67.22-1.19.6-1.56.3-.3.74-.45,1.19-.45.52,0,.97.15,1.26.52.29.37.52.82.52,1.41,0,.52-.08.89-.22,1.11-.15.3-.37.52-.67.67-.29.15-.59.22-.89.22-.52,0-.97-.15-1.26-.52-.29-.37-.52-.82-.52-1.49v.07Zm.67,0c0,.52.08.82.3,1.11.22.22.45.37.82.37.3,0,.6-.15.82-.37.22-.22.3-.59.3-1.11,0-.45-.08-.82-.3-1.04-.22-.22-.45-.37-.82-.37-.3,0-.6.15-.82.37-.22.22-.3.59-.3,1.11v-.07Zm3.79,1.86v-5.2h.67v5.2h-.67Zm1.56-1.11l.67-.07c0,.22.15.45.3.59.15.15.37.22.67.22s.52-.07.67-.15c.15-.15.22-.22.22-.45,0-.15-.07-.22-.22-.37-.07-.07-.3-.15-.67-.22-.45-.15-.82-.22-.97-.3-.15-.07-.3-.22-.44-.37-.08-.15-.15-.3-.15-.52,0-.15.07-.3.15-.45.07-.15.15-.3.29-.37.08-.07.22-.15.37-.22.15-.07.37-.07.52-.07.29,0,.52.07.74.15.22.07.37.22.52.37.08.15.15.37.22.59l-.6.07c0-.22-.07-.37-.22-.45-.15-.07-.3-.15-.6-.15s-.52.07-.59.15c-.15.08-.22.22-.22.37,0,.07,0,.15.08.22.07.07.15.15.22.15s.22.08.6.15c.44.15.74.22.96.3.15.07.3.22.45.37.08.15.15.3.15.52s-.07.44-.22.59c-.15.22-.3.3-.52.45-.22.08-.52.15-.82.15-.52,0-.89-.07-1.12-.3-.22-.22-.45-.52-.52-.89l.07-.08Zm-23.54-7.2l2.01-5.2h.74l2.16,5.2h-.82l-.6-1.56h-2.23l-.59,1.56h-.74.07Zm1.49-2.15h1.78l-.52-1.41c-.15-.45-.29-.82-.37-1.12-.07.37-.15.67-.29,1.04l-.6,1.56v-.07Zm3.79,1.04l.67-.07c0,.22.15.45.3.59.15.15.37.22.67.22s.52-.07.67-.15c.15-.15.22-.22.22-.45,0-.15-.08-.22-.22-.37-.08-.07-.3-.15-.67-.22-.45-.15-.82-.22-.97-.3-.15-.08-.3-.22-.45-.37-.07-.15-.15-.3-.15-.52,0-.15.08-.3.15-.45.07-.15.15-.3.3-.37.07-.07.22-.15.37-.22.15-.07.37-.07.52-.07.3,0,.52.07.74.15.22.08.37.22.52.37.07.15.15.37.22.59l-.59.07c0-.22-.08-.37-.22-.45-.15-.07-.3-.15-.59-.15s-.52.08-.6.15c-.15.08-.22.22-.22.37,0,.07,0,.15.07.22.08.07.15.15.22.15s.22.08.59.15c.45.15.74.22.97.3.15.08.3.22.45.37.07.15.15.3.15.52s-.07.45-.22.59c-.15.22-.3.3-.52.45-.22.07-.52.15-.82.15-.52,0-.89-.08-1.12-.3-.22-.22-.44-.52-.52-.89l.08-.07Zm3.79,0l.67-.07c0,.22.15.45.3.59.15.15.37.22.67.22s.52-.07.67-.15c.15-.15.22-.22.22-.45,0-.15-.08-.22-.22-.37-.07-.07-.3-.15-.67-.22-.44-.15-.82-.22-.97-.3-.15-.08-.29-.22-.44-.37-.08-.15-.15-.3-.15-.52,0-.15.07-.3.15-.45.07-.15.15-.3.3-.37.07-.07.22-.15.37-.22.15-.07.37-.07.52-.07.3,0,.52.07.74.15.22.08.37.22.52.37.08.15.15.37.22.59l-.6.07c0-.22-.07-.37-.22-.45-.15-.07-.3-.15-.6-.15s-.52.08-.59.15c-.15.08-.22.22-.22.37,0,.07,0,.15.08.22.07.07.15.15.22.15s.22.08.6.15c.44.15.74.22.97.3.15.08.3.22.44.37.08.15.15.3.15.52s-.07.45-.22.59c-.15.22-.3.3-.52.45-.22.07-.52.15-.82.15-.52,0-.89-.08-1.12-.3-.22-.22-.45-.52-.52-.89l.07-.07Zm3.79-.74c0-.67.22-1.19.6-1.56.29-.3.74-.45,1.19-.45.52,0,.97.15,1.26.52.29.37.52.82.52,1.41,0,.52-.08.89-.22,1.11-.15.3-.37.52-.67.67-.3.15-.59.22-.89.22-.52,0-.97-.15-1.26-.52-.3-.37-.52-.82-.52-1.49v.08Zm.67,0c0,.52.08.82.3,1.11.22.22.44.37.82.37.3,0,.59-.15.82-.37.22-.22.29-.59.29-1.11,0-.45-.07-.82-.29-1.04-.22-.22-.45-.37-.82-.37-.3,0-.6.15-.82.37-.22.22-.3.59-.3,1.11v-.07Zm6.24.52l.59.07c-.07.45-.22.74-.52,1.04-.3.22-.67.37-1.04.37-.52,0-.97-.15-1.26-.52-.29-.37-.44-.82-.44-1.48,0-.37.07-.74.22-1.04.15-.3.37-.52.6-.67.29-.15.59-.22.89-.22.45,0,.74.07,1.04.3.3.22.45.52.52.89l-.59.08c-.08-.22-.15-.45-.3-.59-.15-.15-.3-.22-.52-.22-.3,0-.6.15-.82.37-.22.22-.3.59-.3,1.12s.08.89.3,1.11c.22.22.44.37.74.37.22,0,.45-.07.6-.22.15-.15.3-.37.3-.74Zm1.34-3.12v-.74h.67v.74h-.67Zm0,4.46v-3.79h.67v3.79h-.67Zm4.23-.45c-.22.22-.44.37-.67.45-.22.07-.45.15-.74.15-.44,0-.74-.08-.96-.3-.22-.22-.37-.45-.37-.74,0-.15.07-.37.15-.52.08-.15.22-.3.3-.37.15-.07.3-.15.45-.22.15,0,.3-.07.59-.07.52-.07.89-.15,1.12-.22v-.15c0-.22-.07-.45-.15-.52-.15-.15-.37-.22-.74-.22-.3,0-.52.07-.67.15-.15.07-.22.3-.3.59l-.6-.07c.08-.3.15-.52.3-.67.15-.15.3-.3.6-.37.22-.07.52-.15.89-.15.3,0,.6.08.82.15.22.07.37.15.45.3.07.15.15.3.22.45v1.41c0,.59,0,.97.07,1.11,0,.15.08.3.15.45h-.67c-.07-.15-.07-.3-.15-.45l-.08-.15Zm-.08-1.41c-.22.07-.59.15-1.04.22-.3.07-.44.07-.59.15-.08.08-.22.15-.22.22-.07.07-.07.22-.07.3,0,.15.07.3.22.45.15.15.3.15.6.15.22,0,.45-.07.67-.15.22-.08.3-.22.44-.45.08-.15.08-.37.08-.67v-.22h-.08Zm3.2,1.34l.07.59c-.15.08-.37.08-.44.08-.22,0-.45,0-.52-.08-.15-.07-.22-.15-.3-.3-.07-.15-.07-.37-.07-.74v-2.15h-.45v-.52h.45v-.97l.67-.37v1.34h.67v.52h-.67v2.6c0,.07.08.07.08.15.07,0,.15.08.22.08h.3v-.22Zm3.34-.67l.67.07c-.08.37-.3.67-.6.89-.3.22-.67.3-1.11.3-.52,0-.97-.15-1.34-.52-.3-.37-.52-.82-.52-1.41,0-.67.15-1.12.52-1.49.3-.37.74-.52,1.26-.52s.89.15,1.26.52c.3.37.44.82.44,1.49v.15h-2.82c0,.45.15.74.37.97.22.22.44.3.82.3.22,0,.44-.07.59-.22.15-.15.3-.3.37-.59l.08.07Zm-2.08-1.04h2.08c0-.3-.08-.52-.22-.74-.22-.22-.44-.37-.81-.37-.3,0-.52.07-.74.3-.22.22-.29.44-.29.82Zm6.16,2.23v-.45c-.22.37-.59.59-1.04.59-.3,0-.59-.08-.82-.22-.22-.15-.45-.37-.59-.67-.15-.3-.22-.67-.22-1.04s.08-.74.22-1.04c.15-.3.29-.52.59-.67.22-.15.52-.22.82-.22.22,0,.45.08.6.15.15.07.29.22.44.37v-1.86h.67v5.2h-.59l-.08-.15Zm-2.01-1.86c0,.52.08.82.3,1.11.22.22.45.37.74.37s.52-.15.74-.37c.22-.22.3-.59.3-1.04,0-.52-.08-.89-.3-1.11-.22-.22-.45-.37-.74-.37s-.52.15-.74.37c-.22.22-.3.59-.3,1.11v-.07Zm-29.78-11.66h.67v3.04c0,.52-.08.97-.15,1.26-.15.3-.3.59-.67.74-.3.22-.74.3-1.19.3-.52,0-.89-.07-1.19-.22-.3-.15-.52-.45-.67-.74-.15-.3-.22-.74-.22-1.34v-3.04h.67v3.04c0,.45.08.82.15.97.07.22.22.37.45.52.22.15.44.15.74.15.52,0,.89-.15,1.12-.37.22-.22.3-.67.3-1.34v-3.05.08Zm2.08,5.2v-5.2h.74l2.75,4.09v-4.09h.67v5.2h-.74l-2.75-4.09v4.09h-.67Zm5.57,0v-5.2h3.79v.59h-3.04v1.63h2.9v.59h-2.9v1.78h3.19v.59h-3.94Zm4.9-1.71l.67-.07c0,.3.07.45.22.67.15.15.3.3.52.37.22.07.52.15.82.15s.52-.07.67-.15c.22-.08.37-.22.45-.3.07-.15.15-.3.15-.45s-.08-.3-.15-.45c-.07-.15-.22-.22-.45-.3-.15-.07-.44-.15-.89-.22-.45-.15-.82-.22-1.04-.3-.22-.15-.45-.3-.52-.52-.15-.22-.15-.45-.15-.67,0-.3.07-.52.22-.74.15-.22.37-.37.67-.52.3-.15.6-.15.97-.15s.74.07,1.04.22c.3.15.52.3.67.52.15.22.22.52.22.82l-.67.07c0-.3-.15-.59-.37-.74-.22-.15-.52-.22-.89-.22-.45,0-.74.07-.89.22-.22.15-.3.37-.3.52,0,.22.07.37.22.45.15.15.45.22,1.04.37.6.15.97.22,1.19.3.3.15.52.3.67.52.15.22.22.45.22.74s-.08.52-.22.82c-.15.22-.37.44-.67.59-.29.15-.59.22-1.04.22s-.89-.07-1.19-.22c-.3-.15-.59-.37-.74-.59-.15-.3-.3-.59-.3-.97h-.15Zm9.06-.15l.67.15c-.15.59-.37.97-.74,1.26-.37.3-.82.45-1.41.45s-1.04-.15-1.34-.37c-.37-.22-.59-.59-.82-.96-.15-.45-.29-.89-.29-1.41s.07-1.04.29-1.41c.22-.37.52-.74.89-.89.37-.22.82-.3,1.26-.3.52,0,.97.15,1.34.37.37.3.6.67.74,1.11l-.67.15c-.15-.37-.3-.67-.52-.82-.22-.15-.52-.3-.89-.3s-.74.07-.96.3c-.3.22-.45.45-.6.74-.07.3-.15.67-.15.97,0,.45.08.82.22,1.19.15.3.3.59.6.74.3.15.59.22.89.22.37,0,.74-.15.97-.3.3-.22.45-.52.52-.97v.07Zm1.56-.74c0-.89.22-1.56.67-2.01.44-.52,1.04-.74,1.78-.74.44,0,.89.15,1.33.37.37.22.67.52.89.97.22.45.3.89.3,1.41s-.08.97-.3,1.41c-.22.45-.52.74-.89.97-.37.22-.81.3-1.26.3-.52,0-.97-.15-1.34-.37-.37-.22-.67-.59-.89-.97-.22-.45-.3-.82-.3-1.26v-.08Zm.74,0c0,.59.15,1.11.52,1.49.37.37.74.52,1.26.52s.97-.15,1.26-.52c.37-.37.52-.89.52-1.56,0-.45-.07-.82-.22-1.11-.15-.3-.37-.59-.59-.74-.3-.15-.6-.3-.97-.3-.52,0-.89.15-1.26.52-.37.37-.52.89-.52,1.71Z"/>
      <g>
        <path class="cls-1" d="m99.21.83c0,.46-.37.83-.83.83s-.83-.37-.83-.83.37-.83.83-.83.83.37.83.83"/>
        <path class="cls-1" d="m99.21,3.77c0,.46-.37.83-.83.83s-.83-.37-.83-.83.37-.83.83-.83.83.37.83.83"/>
        <path class="cls-1" d="m99.21,6.96c0,.46-.37.83-.83.83s-.83-.37-.83-.83.37-.83.83-.83.83.37.83.83"/>
        <path class="cls-1" d="m99.21,10.16c0,.46-.37.83-.83.83s-.83-.37-.83-.83.37-.83.83-.83.83.37.83.83"/>
        <path class="cls-1" d="m99.21,13.59c0,.46-.37.83-.83.83s-.83-.37-.83-.83.37-.83.83-.83.83.37.83.83"/>
        <path class="cls-1" d="m99.21,17.03c0,.46-.37.83-.83.83s-.83-.37-.83-.83.37-.83.83-.83.83.37.83.83"/>
        <path class="cls-1" d="m99.21,20.57c0,.46-.37.83-.83.83s-.83-.37-.83-.83.37-.83.83-.83.83.37.83.83"/>
        <path class="cls-1" d="m99.21,24.1c0,.46-.37.83-.83.83s-.83-.37-.83-.83.37-.83.83-.83.83.37.83.83"/>
        <path class="cls-1" d="m99.21,27.93c0,.46-.37.83-.83.83s-.83-.37-.83-.83.37-.83.83-.83.83.37.83.83"/>
        <path class="cls-1" d="m99.21,31.76c0,.46-.37.83-.83.83s-.83-.37-.83-.83.37-.83.83-.83.83.37.83.83"/>
        <path class="cls-1" d="m99.21,35.79c0,.46-.37.83-.83.83s-.83-.37-.83-.83.37-.83.83-.83.83.37.83.83"/>
        <path class="cls-1" d="m99.21,39.92c0,.46-.37.83-.83.83s-.83-.37-.83-.83.37-.83.83-.83.83.37.83.83"/>
        <path class="cls-1" d="m99.21,44.24c0,.46-.37.83-.83.83s-.83-.37-.83-.83.37-.83.83-.83.83.37.83.83"/>
        <path class="cls-1" d="m99.21,49.15c0,.46-.37.83-.83.83s-.83-.37-.83-.83.37-.83.83-.83.83.37.83.83"/>
        <path class="cls-1" d="m99.21,54.55c0,.46-.37.83-.83.83s-.83-.37-.83-.83.37-.83.83-.83.83.37.83.83"/>
        <path class="cls-1" d="m99.21,60.94c0,.46-.37.83-.83.83s-.83-.37-.83-.83.37-.83.83-.83c.46,0,.83.37.83.83"/>
        <path class="cls-1" d="m99.21,67.81c0,.46-.37.83-.83.83s-.83-.37-.83-.83.37-.83.83-.83c.46,0,.83.37.83.83"/>
        <path class="cls-1" d="m99.21,75.66c0,.46-.37.83-.83.83s-.83-.37-.83-.83.37-.83.83-.83.83.37.83.83"/>
        <path class="cls-1" d="m99.21,84.52c0,.46-.37.83-.83.83s-.83-.37-.83-.83.37-.83.83-.83.83.37.83.83"/>
        <path class="cls-1" d="m99.21,94.34c0,.46-.37.83-.83.83s-.83-.37-.83-.83.37-.83.83-.83.83.37.83.83"/>
        <rect class="cls-1" x="35.45" y="45.7" width="48.59" height="2.04"/>
        <rect class="cls-1" x="32.7" y="49.16" width="53.99" height="2.04"/>
        <rect class="cls-1" x="30.15" y="52.63" width="59.18" height="2.04"/>
        <rect class="cls-1" x="35.45" y="20.02" width="48.59" height="2.04"/>
        <polygon class="cls-1" points="45.28 18.7 59.74 14.37 73.9 18.7 79.81 18.7 59.74 12.49 39.37 18.7 45.28 18.7"/>
        <polygon class="cls-1" points="35.45 18.7 59.59 11.32 84.04 18.7 84.04 16.51 59.74 9.03 35.45 16.51 35.45 18.7"/>
        <path class="cls-1" d="m38.3,43.06s0,1.53,1.73,1.53,1.63-1.53,1.63-1.53v-19.76h-1.27v19.81s0,.36-.46.36-.36-.46-.36-.46v-19.71h-1.27v19.76Z"/>
        <polygon class="cls-1" points="46.3 44.59 47.31 44.59 47.31 31.79 48.59 44.59 49.66 44.59 49.66 23.3 48.59 23.3 48.59 34.67 47.31 23.3 46.3 23.3 46.3 44.59"/>
        <polygon class="cls-1" points="54.39 44.59 57.65 44.59 57.65 43.47 55.82 43.47 55.82 33.84 57.19 33.84 57.19 32.67 55.82 32.67 55.82 24.37 57.19 24.37 57.19 23.3 54.39 23.3 54.39 44.59"/>
        <path class="cls-1" d="m73.14,29.61v-4.79s-.05-1.53-1.68-1.53-1.63,1.53-1.63,1.53v18.23s-.05,1.53,1.63,1.53,1.68-1.53,1.68-1.53v-5.35h-1.27v5.35s0,.41-.41.41c-.38,0-.46-.41-.46-.41v-18.23s0-.46.46-.46c.41,0,.41.46.41.46v4.79h1.27Z"/>
        <path class="cls-1" d="m80.01,43.06s.05.41-.46.41-.51-.41-.51-.41v-18.23s0-.46.46-.46c.51,0,.51.46.51.46v18.23Zm1.22-18.23s.1-1.53-1.68-1.53-1.78,1.53-1.78,1.53v18.23s0,1.53,1.68,1.53c1.78,0,1.78-1.53,1.78-1.53,0,0,0-18.23,0-18.23Z"/>
        <path class="cls-1" d="m63.82,43.06s0,.41-.33.38c-.33-.02-.33-.38-.33-.38v-5.35h-1.32v5.35s-.05,1.53,1.63,1.53,1.68-1.53,1.68-1.53c0,0,0-3.57,0-4.61,0-2.5-1.99-7.26-1.99-8.84v-4.79s-.05-.46.31-.46.36.46.36.46v4.79h1.32v-4.79s.05-1.58-1.63-1.53c-1.68.05-1.68,1.53-1.68,1.53v4.07c0,2.67,1.99,7.18,1.99,9.24v4.92h0Z"/>
        <path class="cls-1" d="m43.51,66.84c0,.69-.11,1.16-.34,1.41s-.61.37-1.15.37c-.31,0-.58-.06-.8-.19-.22-.12-.37-.3-.46-.53s-.13-.58-.13-1.06v-3.19h-.73v3.19c0,.59.07,1.05.21,1.38.14.34.38.6.71.77.33.18.75.27,1.27.27s.96-.1,1.29-.31c.33-.2.55-.47.68-.8.13-.33.19-.77.19-1.32v-3.19h-.73v3.19h0Zm2.54,2.34v-2.19c0-.51.1-.86.31-1.04.21-.18.46-.28.75-.28.18,0,.34.04.47.12.13.08.23.19.28.33.05.14.08.34.08.62v2.43h.68v-2.46c0-.31-.01-.53-.04-.66-.04-.19-.11-.36-.21-.5-.1-.14-.25-.25-.45-.34-.2-.09-.42-.13-.67-.13-.55,0-.98.22-1.27.66v-.57h-.61v4h.68Zm4.3-4.74v-.78h-.68v.78h.68Zm0,4.74v-4h-.68v4h.68Zm2.22-.58c-.1,0-.18-.02-.23-.05-.05-.03-.09-.08-.12-.13s-.04-.18-.04-.37v-2.34h.68v-.53h-.68v-1.4l-.67.41v.99h-.5v.53h.5v2.3c0,.41.03.67.08.8.06.13.15.23.29.31s.33.12.57.12c.15,0,.32-.02.51-.06l-.1-.6c-.12.02-.22.03-.3.03h0Zm3.28-.08c-.18.13-.39.2-.64.2-.33,0-.61-.12-.84-.35-.22-.23-.35-.57-.37-1.01h2.98c0-.08,0-.14,0-.18,0-.66-.17-1.17-.51-1.54-.34-.36-.78-.55-1.31-.55s-1,.19-1.35.56c-.35.37-.52.89-.52,1.57s.17,1.16.51,1.52c.34.36.81.54,1.39.54.47,0,.85-.11,1.15-.34.3-.23.5-.54.61-.95l-.7-.09c-.1.29-.24.49-.42.63h0Zm-1.46-2.56c.21-.21.47-.31.79-.31.34,0,.62.13.84.39.14.17.23.42.26.76h-2.24c.02-.35.14-.63.35-.84h0Zm6.65,3.22v-5.52h-.67v1.98c-.12-.16-.27-.3-.46-.4-.19-.1-.4-.15-.64-.15-.33,0-.63.09-.89.26-.27.17-.47.42-.6.75-.13.33-.2.69-.2,1.09s.07.77.22,1.09c.15.32.35.56.62.74.27.18.56.26.88.26.49,0,.87-.2,1.12-.6v.51h.63Zm-2.47-3.16c.2-.25.45-.37.75-.37s.57.13.78.38c.21.26.32.66.32,1.21,0,.5-.1.87-.31,1.11s-.46.36-.76.36-.55-.13-.76-.38c-.22-.25-.32-.64-.32-1.15,0-.53.1-.92.3-1.17h0Zm6.46,3.16v-4.34l2.9,4.34h.75v-5.52h-.7v4.34l-2.9-4.34h-.75v5.52h.7Zm7.54,0h.71c-.09-.15-.14-.31-.17-.48-.03-.17-.04-.57-.04-1.2v-.9c0-.3-.01-.51-.03-.63-.04-.19-.11-.34-.21-.46-.1-.12-.26-.22-.47-.3-.21-.08-.49-.12-.83-.12s-.65.05-.91.14c-.26.09-.46.23-.6.4-.14.17-.24.4-.3.69l.66.09c.07-.28.19-.48.34-.59.15-.11.39-.17.71-.17.34,0,.6.08.77.23.13.11.19.31.19.58,0,.03,0,.08,0,.18-.26.09-.66.17-1.21.23-.27.03-.47.07-.6.1-.18.05-.34.12-.49.22-.14.1-.26.23-.35.39-.09.16-.13.34-.13.54,0,.33.12.61.35.82.24.22.57.32,1.01.32.27,0,.52-.04.75-.13s.47-.24.73-.45c.02.19.07.35.14.49h0Zm-.19-1.76c0,.3-.04.52-.11.68-.1.2-.25.36-.45.47s-.44.17-.7.17-.46-.06-.6-.18c-.14-.12-.21-.27-.21-.45,0-.12.03-.23.09-.32.06-.1.15-.17.27-.22.12-.05.31-.1.59-.14.49-.07.86-.16,1.11-.26v.25h0Zm2.92,1.18c-.1,0-.18-.02-.23-.05-.05-.03-.09-.08-.12-.13s-.04-.18-.04-.37v-2.34h.68v-.53h-.68v-1.4l-.67.41v.99h-.5v.53h.5v2.3c0,.41.03.67.08.8.06.13.15.23.29.31s.33.12.57.12c.15,0,.32-.02.51-.06l-.1-.6c-.12.02-.22.03-.3.03h0Zm1.64-4.16v-.78h-.68v.78h.68Zm0,4.74v-4h-.68v4h.68Zm1.3-.45c.35.36.8.54,1.36.54.35,0,.67-.08.97-.25.3-.16.52-.39.67-.69.15-.29.23-.7.23-1.21,0-.64-.17-1.13-.52-1.49-.35-.36-.8-.54-1.35-.54-.49,0-.91.15-1.26.44-.41.36-.62.91-.62,1.65,0,.67.17,1.19.52,1.55h0Zm.51-2.7c.22-.25.51-.38.84-.38s.61.13.84.38c.22.26.34.63.34,1.13,0,.52-.11.92-.34,1.17s-.5.38-.84.38-.62-.13-.84-.38c-.22-.25-.34-.64-.34-1.15,0-.51.11-.9.34-1.15h0Zm4.19,3.15v-2.19c0-.51.1-.86.32-1.04.21-.18.46-.28.75-.28.18,0,.34.04.47.12.13.08.23.19.28.33.05.14.08.34.08.62v2.43h.68v-2.46c0-.31-.01-.53-.04-.66-.04-.19-.11-.36-.21-.5-.1-.14-.25-.25-.45-.34-.2-.09-.42-.13-.67-.13-.55,0-.98.22-1.27.66v-.57h-.61v4h.68Zm3.86-.23c.27.22.67.32,1.19.32.31,0,.6-.05.84-.16.25-.11.44-.26.57-.46.13-.2.2-.41.2-.64s-.05-.42-.16-.58c-.11-.16-.26-.28-.45-.36-.19-.08-.52-.19-1-.31-.33-.09-.53-.15-.6-.17-.12-.05-.2-.11-.26-.18-.06-.07-.08-.15-.08-.24,0-.14.07-.26.2-.36.13-.1.36-.15.67-.15.26,0,.47.06.61.17.14.12.23.28.26.48l.66-.09c-.04-.26-.12-.47-.23-.62-.11-.16-.29-.28-.53-.37-.24-.09-.51-.14-.83-.14-.21,0-.4.03-.59.08-.18.05-.33.12-.43.2-.14.1-.25.23-.33.38-.08.15-.12.32-.12.5,0,.2.05.37.15.54.1.16.24.29.44.38s.54.2,1.03.33c.37.09.6.17.69.23.13.09.2.21.2.36,0,.17-.08.32-.23.45-.15.13-.38.19-.69.19s-.55-.07-.72-.22-.28-.35-.31-.62l-.67.11c.08.42.25.74.52.96h0Z"/>
        <path class="cls-1" d="m4.12,77.59v-.65H.73v-1.88h3.06v-.65H.73v-1.69h3.26v-.65H0v5.52h4.12Zm4.15,0v-5.52h-.67v1.98c-.12-.16-.27-.3-.46-.4-.19-.1-.4-.15-.64-.15-.33,0-.63.09-.89.26-.27.17-.47.42-.6.75-.13.33-.2.69-.2,1.09s.07.77.22,1.09c.15.32.35.56.62.74.27.18.56.26.88.26.49,0,.87-.2,1.12-.6v.51h.63Zm-2.47-3.16c.2-.25.45-.37.76-.37s.57.13.78.38c.21.26.32.66.32,1.21,0,.5-.1.87-.31,1.11s-.46.36-.76.36-.55-.13-.76-.38c-.22-.25-.32-.64-.32-1.15,0-.53.1-.92.3-1.17h0Zm6.77,3.16v-4h-.68v2.14c0,.34-.04.6-.11.78-.07.18-.2.32-.38.43-.18.1-.37.16-.57.16s-.37-.05-.51-.15c-.14-.1-.23-.24-.27-.42-.03-.12-.04-.36-.04-.72v-2.22h-.68v2.48c0,.29.01.5.04.63.04.2.11.37.21.5.1.14.25.25.46.34s.43.14.66.14c.54,0,.96-.23,1.27-.68v.59h.61Zm3.33-.71c-.18.16-.4.25-.67.25-.33,0-.6-.12-.81-.37-.21-.24-.31-.63-.31-1.17s.11-.92.32-1.16c.21-.25.49-.37.83-.37.23,0,.42.07.58.2s.27.34.33.61l.66-.1c-.08-.4-.26-.72-.53-.94-.28-.22-.63-.33-1.07-.33-.34,0-.66.08-.96.24s-.51.41-.65.73c-.14.32-.21.7-.21,1.13,0,.67.17,1.18.5,1.54s.77.54,1.32.54c.44,0,.81-.13,1.11-.39.3-.26.49-.62.56-1.08l-.67-.09c-.05.34-.16.59-.34.75h0Zm4.33.71h.71c-.09-.15-.14-.31-.17-.48-.03-.17-.04-.57-.04-1.2v-.9c0-.3-.01-.51-.03-.63-.04-.19-.11-.34-.21-.46-.1-.12-.26-.22-.47-.3-.21-.08-.49-.12-.83-.12s-.65.05-.91.14c-.26.09-.46.23-.6.4-.14.17-.24.4-.3.69l.66.09c.07-.28.19-.48.34-.59.15-.11.39-.17.71-.17.34,0,.6.08.77.23.13.11.19.31.19.58,0,.03,0,.08,0,.18-.26.09-.66.17-1.21.23-.27.03-.47.07-.6.1-.18.05-.34.12-.49.22-.14.1-.26.23-.35.39-.09.16-.13.34-.13.54,0,.33.12.61.35.82.24.22.57.32,1.01.32.27,0,.52-.04.75-.13s.47-.24.73-.45c.02.19.06.35.14.49h0Zm-.19-1.76c0,.3-.04.53-.11.68-.1.2-.24.36-.45.47s-.44.17-.7.17-.46-.06-.6-.18c-.14-.12-.2-.27-.2-.45,0-.12.03-.23.09-.32.06-.1.15-.17.27-.22.12-.05.31-.1.59-.14.49-.07.86-.16,1.11-.26v.25h0Zm2.92,1.18c-.1,0-.18-.02-.23-.05-.05-.03-.09-.08-.12-.13-.02-.06-.04-.18-.04-.37v-2.34h.68v-.53h-.68v-1.4l-.67.41v.99h-.5v.53h.5v2.3c0,.41.03.67.08.8s.15.23.29.31.33.12.57.12c.15,0,.32-.02.51-.06l-.1-.6c-.12.02-.22.03-.3.03h0Zm1.64-4.16v-.78h-.68v.78h.68Zm0,4.74v-4h-.68v4h.68Zm1.3-.45c.35.36.8.54,1.36.54.35,0,.67-.08.97-.25s.52-.39.67-.69c.15-.29.23-.7.23-1.21,0-.64-.17-1.13-.52-1.49s-.8-.54-1.35-.54c-.5,0-.91.15-1.26.44-.41.36-.62.91-.62,1.65,0,.68.17,1.19.52,1.55h0Zm.51-2.7c.22-.25.51-.38.84-.38s.61.13.84.38c.22.26.34.63.34,1.12,0,.52-.11.92-.34,1.17-.22.26-.5.38-.84.38s-.62-.13-.84-.38c-.22-.25-.34-.64-.34-1.15s.11-.9.34-1.15h0Zm4.19,3.15v-2.19c0-.51.1-.86.31-1.04.21-.18.46-.28.75-.28.18,0,.34.04.47.12.13.08.23.19.28.33.05.14.08.34.08.62v2.43h.68v-2.46c0-.31-.01-.53-.04-.66-.04-.19-.11-.36-.21-.5-.1-.14-.25-.25-.45-.34-.2-.09-.42-.13-.67-.13-.56,0-.98.22-1.27.66v-.57h-.61v4h.68Zm6.36,0h.71c-.09-.15-.14-.31-.17-.48-.03-.17-.04-.57-.04-1.2v-.9c0-.3-.01-.51-.03-.63-.04-.19-.11-.34-.21-.46-.1-.12-.26-.22-.47-.3-.21-.08-.49-.12-.83-.12s-.65.05-.91.14c-.26.09-.46.23-.6.4-.14.17-.24.4-.3.69l.66.09c.07-.28.19-.48.34-.59.15-.11.39-.17.71-.17.34,0,.6.08.77.23.13.11.19.31.19.58,0,.03,0,.08,0,.18-.26.09-.66.17-1.21.23-.27.03-.47.07-.6.1-.18.05-.34.12-.49.22-.14.1-.26.23-.35.39-.09.16-.13.34-.13.54,0,.33.12.61.35.82.24.22.57.32,1.01.32.27,0,.52-.04.75-.13s.47-.24.73-.45c.02.19.06.35.14.49h0Zm-.19-1.76c0,.3-.04.53-.11.68-.1.2-.24.36-.45.47s-.44.17-.7.17-.46-.06-.6-.18c-.14-.12-.2-.27-.2-.45,0-.12.03-.23.09-.32.06-.1.15-.17.27-.22.12-.05.31-.1.59-.14.49-.07.86-.16,1.11-.26v.25h0Zm2.4,1.76v-5.52h-.68v5.52h.68Zm1.61,0c0,.23-.04.4-.11.53s-.17.21-.32.28l.19.29c.22-.1.38-.23.48-.41s.15-.4.15-.69v-.77h-.77v.77h.38Zm3.87-.78c.19.29.46.51.79.66s.76.22,1.26.22c.39,0,.75-.07,1.06-.22s.56-.35.73-.61c.17-.26.25-.54.25-.83s-.08-.56-.23-.79c-.15-.23-.39-.42-.71-.56-.22-.1-.63-.22-1.22-.35-.59-.13-.96-.27-1.1-.39-.14-.13-.21-.29-.21-.49,0-.23.1-.42.3-.59.2-.16.52-.24.97-.24s.75.09.96.27c.22.18.35.44.38.79l.7-.05c-.01-.32-.1-.61-.27-.87s-.41-.45-.72-.58c-.31-.13-.67-.2-1.08-.2-.37,0-.71.06-1.01.19-.3.13-.54.31-.69.55-.16.24-.24.5-.24.78,0,.25.06.48.19.69s.33.38.59.51c.2.11.56.22,1.07.34.51.12.83.21.98.27.23.09.4.2.5.33.1.13.15.28.15.45s-.05.33-.16.47-.26.26-.48.34c-.21.08-.46.12-.74.12-.31,0-.6-.05-.85-.16-.25-.11-.44-.25-.56-.43-.12-.18-.2-.4-.23-.68l-.69.06c0,.37.11.7.3.99h0Zm7.28.07c-.18.16-.4.25-.67.25-.33,0-.6-.12-.81-.37-.21-.24-.31-.63-.31-1.17s.11-.92.32-1.16c.21-.25.49-.37.83-.37.23,0,.42.07.58.2.16.14.27.34.33.61l.66-.1c-.08-.4-.25-.72-.53-.94-.28-.22-.63-.33-1.07-.33-.34,0-.66.08-.95.24s-.51.41-.65.73-.22.7-.22,1.13c0,.67.17,1.18.5,1.54s.77.54,1.32.54c.44,0,.81-.13,1.11-.39.3-.26.49-.62.56-1.08l-.67-.09c-.05.34-.16.59-.34.75h0Zm2.27-4.03v-.78h-.68v.78h.68Zm0,4.74v-4h-.68v4h.68Zm3.35-.66c-.18.13-.39.2-.64.2-.33,0-.61-.12-.84-.35-.22-.23-.35-.57-.37-1.01h2.98c0-.08,0-.14,0-.18,0-.66-.17-1.17-.51-1.54-.34-.36-.78-.55-1.31-.55s-1,.19-1.35.56c-.35.37-.52.89-.52,1.57s.17,1.16.51,1.52c.34.36.81.54,1.39.54.47,0,.85-.11,1.15-.34.3-.23.5-.54.61-.95l-.7-.09c-.1.29-.24.49-.42.63h0Zm-1.46-2.56c.21-.21.47-.31.79-.31.34,0,.62.13.84.39.14.17.23.42.26.76h-2.24c.02-.35.14-.63.35-.84h0Zm4.11,3.22v-2.19c0-.51.11-.86.31-1.04.21-.18.46-.28.75-.28.18,0,.34.04.47.12.13.08.23.19.28.33.05.14.08.34.08.62v2.43h.68v-2.46c0-.31-.01-.53-.04-.66-.04-.19-.11-.36-.21-.5-.1-.14-.25-.25-.45-.34-.2-.09-.42-.13-.67-.13-.56,0-.98.22-1.27.66v-.57h-.61v4h.68Zm4.8-.58c-.1,0-.18-.02-.23-.05-.05-.03-.09-.08-.12-.13-.02-.06-.04-.18-.04-.37v-2.34h.68v-.53h-.68v-1.4l-.67.41v.99h-.5v.53h.5v2.3c0,.41.03.67.08.8.05.13.15.23.29.31s.33.12.57.12c.15,0,.32-.02.51-.06l-.1-.6c-.12.02-.22.03-.3.03h0Zm1.64-4.16v-.78h-.68v.78h.68Zm0,4.74v-4h-.68v4h.68Zm1.89,0v-3.48h.78v-.52h-.78v-.26c0-.3.04-.5.13-.59.09-.09.25-.14.48-.14.11,0,.23.01.37.03l.11-.57c-.21-.06-.44-.09-.69-.09-.37,0-.64.11-.81.32-.17.21-.26.51-.26.91v.39h-.6v.52h.6v3.48h.68Zm1.97-4.74v-.78h-.68v.78h.68Zm0,4.74v-4h-.68v4h.68Zm3.31-.71c-.18.16-.4.25-.67.25-.33,0-.6-.12-.81-.37-.21-.24-.31-.63-.31-1.17s.11-.92.32-1.16c.21-.25.49-.37.83-.37.23,0,.42.07.58.2s.27.34.33.61l.66-.1c-.08-.4-.25-.72-.53-.94-.28-.22-.63-.33-1.07-.33-.34,0-.66.08-.95.24-.29.16-.51.41-.65.73s-.21.7-.21,1.13c0,.67.17,1.18.5,1.54.33.36.77.54,1.32.54.44,0,.81-.13,1.11-.39.3-.26.49-.62.56-1.08l-.67-.09c-.05.34-.16.59-.34.75h0Zm6.48.71h.71c-.08-.15-.14-.31-.17-.48-.03-.17-.04-.57-.04-1.2v-.9c0-.3-.01-.51-.03-.63-.04-.19-.11-.34-.21-.46-.1-.12-.26-.22-.47-.3-.21-.08-.49-.12-.83-.12s-.65.05-.91.14c-.26.09-.46.23-.6.4-.14.17-.24.4-.3.69l.66.09c.07-.28.19-.48.34-.59.15-.11.39-.17.71-.17.34,0,.6.08.77.23.13.11.19.31.19.58,0,.03,0,.08,0,.18-.26.09-.66.17-1.21.23-.27.03-.47.07-.6.1-.18.05-.34.12-.49.22-.14.1-.26.23-.35.39-.09.16-.13.34-.13.54,0,.33.12.61.35.82.24.22.57.32,1.01.32.27,0,.51-.04.75-.13.23-.09.47-.24.72-.45.02.19.07.35.14.49h0Zm-.19-1.76c0,.3-.04.53-.11.68-.1.2-.24.36-.45.47s-.44.17-.7.17-.46-.06-.6-.18c-.14-.12-.21-.27-.21-.45,0-.12.03-.23.09-.32.06-.1.15-.17.27-.22.12-.05.31-.1.59-.14.49-.07.86-.16,1.11-.26v.25h0Zm2.41,1.76v-2.19c0-.51.1-.86.32-1.04.21-.18.46-.28.75-.28.18,0,.34.04.47.12.13.08.23.19.28.33.05.14.08.34.08.62v2.43h.68v-2.46c0-.31-.01-.53-.04-.66-.04-.19-.11-.36-.21-.5-.1-.14-.25-.25-.45-.34-.2-.09-.42-.13-.67-.13-.55,0-.98.22-1.27.66v-.57h-.61v4h.68Z"/>
        <path class="cls-1" d="m89.35,77.59v-5.52h-.67v1.98c-.12-.16-.27-.3-.46-.4-.19-.1-.4-.15-.64-.15-.33,0-.63.09-.89.26s-.47.42-.6.75c-.13.33-.2.69-.2,1.09s.07.77.22,1.09c.15.32.35.56.62.74.27.18.56.26.88.26.49,0,.87-.2,1.12-.6v.51h.63Zm-2.47-3.16c.2-.25.45-.37.76-.37s.57.13.78.38.32.66.32,1.21c0,.5-.1.87-.31,1.11s-.46.36-.75.36-.55-.13-.77-.38-.32-.64-.32-1.15c0-.53.1-.92.3-1.17h0Z"/>
        <path class="cls-1" d="m21.38,85.13c-.28.24-.63.35-1.04.35-.34,0-.65-.09-.94-.26-.29-.17-.5-.44-.64-.79-.14-.35-.21-.76-.21-1.23,0-.36.06-.72.17-1.06.12-.34.32-.62.6-.82.28-.2.64-.31,1.06-.31.37,0,.68.09.92.28.24.18.43.48.56.88l.72-.17c-.15-.51-.41-.91-.79-1.19-.38-.28-.84-.42-1.39-.42-.49,0-.93.11-1.34.33-.41.22-.72.55-.94.98-.22.43-.33.93-.33,1.51,0,.53.1,1.02.29,1.48.19.46.48.81.85,1.05.37.24.86.36,1.45.36s1.06-.16,1.46-.47c.4-.32.67-.77.83-1.37l-.73-.18c-.1.46-.3.81-.58,1.05h0Zm5.35.89v-4h-.68v2.14c0,.34-.04.6-.11.78-.07.18-.2.32-.38.43-.18.1-.37.16-.57.16s-.37-.05-.51-.15c-.14-.1-.23-.24-.27-.42-.03-.12-.04-.36-.04-.72v-2.22h-.68v2.48c0,.29.01.5.04.63.04.2.11.37.21.5.1.14.25.25.46.34s.43.14.66.14c.54,0,.96-.23,1.27-.68v.59h.61Zm1.73,0v-5.52h-.68v5.52h.68Zm2.23-.58c-.1,0-.18-.02-.23-.05-.05-.03-.09-.08-.12-.13-.02-.06-.04-.18-.04-.37v-2.34h.68v-.53h-.68v-1.4l-.67.41v.99h-.5v.53h.5v2.3c0,.41.03.67.08.8s.15.23.29.31c.14.08.33.12.57.12.15,0,.32-.02.51-.06l-.1-.6c-.12.02-.22.03-.3.03h0Zm4.19.58v-4h-.68v2.14c0,.34-.04.6-.11.78-.07.18-.2.32-.38.43-.18.1-.37.16-.57.16s-.37-.05-.51-.15c-.14-.1-.23-.24-.27-.42-.03-.12-.04-.36-.04-.72v-2.22h-.68v2.48c0,.29.01.5.04.63.04.2.11.37.21.5.1.14.25.25.46.34.2.09.43.14.66.14.54,0,.96-.23,1.27-.68v.59h.61Zm1.73,0v-2.1c0-.29.04-.55.11-.79.05-.16.13-.28.25-.37.12-.09.25-.13.4-.13.17,0,.33.05.5.15l.23-.63c-.24-.15-.47-.22-.7-.22-.16,0-.3.04-.43.14s-.28.28-.43.56v-.61h-.61v4h.68Zm4.65,0h.71c-.09-.15-.14-.31-.17-.48-.03-.17-.04-.57-.04-1.2v-.9c0-.3-.01-.51-.03-.63-.04-.19-.11-.34-.21-.46-.1-.12-.26-.22-.47-.3s-.49-.12-.83-.12-.65.05-.91.14c-.26.09-.46.23-.6.4-.14.17-.24.4-.3.69l.66.09c.07-.28.19-.48.34-.59.15-.11.39-.17.71-.17.34,0,.6.08.77.23.13.11.19.31.19.58,0,.03,0,.08,0,.18-.26.09-.66.17-1.21.23-.27.03-.47.07-.6.1-.18.05-.34.12-.49.22-.14.1-.26.23-.35.39-.09.16-.13.34-.13.54,0,.33.12.61.35.82.24.22.57.32,1.01.32.27,0,.52-.04.75-.13s.47-.24.73-.45c.02.19.06.35.13.5h0Zm-.19-1.76c0,.3-.04.52-.11.68-.1.2-.24.36-.45.47-.2.11-.44.17-.7.17s-.46-.06-.6-.18-.21-.27-.21-.45c0-.12.03-.23.09-.32s.15-.17.27-.22c.12-.05.31-.1.59-.14.49-.07.86-.16,1.11-.26v.25h0Zm2.4,1.76v-5.52h-.68v5.52h.68Zm3.38-1.31c.21.43.52.78.93,1.03.41.25.87.38,1.39.38.48,0,.93-.11,1.34-.34.41-.23.73-.56.96-1,.23-.44.34-.94.34-1.5s-.11-1.05-.32-1.48c-.22-.44-.53-.78-.94-1.02s-.87-.36-1.38-.36c-.78,0-1.41.26-1.91.78-.49.52-.74,1.24-.74,2.15,0,.48.11.94.32,1.38h0Zm1-3.15c.37-.36.82-.53,1.34-.53.36,0,.69.09.99.28.29.19.51.44.67.78.15.34.23.73.23,1.18,0,.71-.18,1.26-.53,1.65-.36.39-.81.58-1.36.58s-.99-.19-1.35-.57c-.36-.38-.54-.91-.54-1.57,0-.83.19-1.42.56-1.78h0Zm5.5,4.46v-2.1c0-.29.04-.55.11-.79.05-.16.13-.28.25-.37.12-.09.25-.13.4-.13.17,0,.33.05.5.15l.23-.63c-.24-.15-.47-.22-.7-.22-.16,0-.3.04-.44.14s-.28.28-.43.56v-.61h-.61v4h.68Zm2.2,1.3c.29.21.68.32,1.16.32.4,0,.74-.08,1.02-.23.28-.15.48-.36.6-.62.13-.26.19-.7.19-1.32v-3.46h-.63v.48c-.31-.38-.7-.57-1.17-.57-.35,0-.66.09-.92.26-.26.18-.46.42-.6.75-.14.32-.21.68-.21,1.06,0,.56.15,1.03.45,1.43s.73.6,1.28.6c.44,0,.81-.17,1.11-.52,0,.44-.01.73-.05.87-.06.23-.18.4-.35.53-.17.13-.41.19-.73.19-.29,0-.52-.06-.69-.19-.13-.09-.2-.24-.23-.44l-.66-.1c-.01.43.13.76.43.97h0Zm.45-4.47c.21-.24.47-.37.77-.37s.57.12.79.37c.22.25.33.62.33,1.11s-.11.89-.32,1.13-.47.36-.78.36-.58-.12-.78-.36c-.21-.24-.31-.62-.31-1.15,0-.48.1-.85.32-1.09h0Zm6.29,3.16h.71c-.09-.15-.14-.31-.17-.48-.03-.17-.04-.57-.04-1.2v-.9c0-.3-.01-.51-.03-.63-.04-.19-.11-.34-.21-.46-.1-.12-.26-.22-.47-.3s-.49-.12-.83-.12-.65.05-.91.14c-.26.09-.46.23-.6.4-.14.17-.24.4-.3.69l.66.09c.07-.28.19-.48.34-.59.15-.11.39-.17.71-.17.34,0,.6.08.77.23.13.11.19.31.19.58,0,.03,0,.08,0,.18-.26.09-.66.17-1.21.23-.27.03-.47.07-.6.1-.18.05-.34.12-.49.22-.14.1-.26.23-.35.39-.09.16-.13.34-.13.54,0,.33.12.61.35.82.24.22.57.32,1.01.32.27,0,.52-.04.75-.13s.47-.24.73-.45c.02.19.07.35.14.5h0Zm-.19-1.76c0,.3-.04.52-.11.68-.1.2-.25.36-.45.47-.2.11-.44.17-.7.17s-.46-.06-.6-.18-.2-.27-.2-.45c0-.12.03-.23.09-.32.06-.1.15-.17.27-.22.12-.05.31-.1.59-.14.49-.07.86-.16,1.11-.26v.25h0Zm2.42,1.76v-2.19c0-.51.1-.86.31-1.04.21-.18.46-.28.75-.28.18,0,.34.04.47.12.13.08.23.19.28.33.05.14.08.34.08.62v2.43h.68v-2.46c0-.31-.01-.53-.04-.66-.04-.19-.11-.36-.21-.5-.1-.14-.25-.25-.45-.34-.2-.09-.42-.13-.66-.13-.56,0-.98.22-1.27.66v-.57h-.61v4h.68Zm4.3-4.74v-.78h-.68v.78h.68Zm0,4.74v-4h-.68v4h.68Zm4.22,0v-.58h-1.85c-.27,0-.55.01-.86.03l.42-.46,2.17-2.54v-.45h-3.27v.55h1.63c.22,0,.48,0,.76-.02l-2.55,2.92v.55h3.54Zm3.42,0h.71c-.09-.15-.14-.31-.17-.48-.03-.17-.04-.57-.04-1.2v-.9c0-.3-.01-.51-.03-.63-.04-.19-.11-.34-.21-.46-.1-.12-.26-.22-.47-.3-.21-.08-.49-.12-.83-.12s-.65.05-.91.14c-.26.09-.46.23-.6.4-.14.17-.24.4-.3.69l.66.09c.07-.28.19-.48.34-.59s.39-.17.71-.17c.34,0,.6.08.77.23.13.11.19.31.19.58,0,.03,0,.08,0,.18-.26.09-.66.17-1.21.23-.27.03-.47.07-.6.1-.18.05-.34.12-.49.22-.14.1-.26.23-.35.39-.09.16-.13.34-.13.54,0,.33.12.61.35.82.24.22.57.32,1.01.32.27,0,.51-.04.75-.13s.47-.24.73-.45c.02.19.07.35.14.5h0Zm-.19-1.76c0,.3-.04.52-.11.68-.1.2-.24.36-.45.47-.2.11-.44.17-.7.17s-.46-.06-.6-.18-.21-.27-.21-.45c0-.12.03-.23.09-.32.06-.1.15-.17.27-.22.12-.05.31-.1.59-.14.49-.07.86-.16,1.11-.26v.25h0Zm2.92,1.18c-.1,0-.18-.02-.23-.05-.05-.03-.09-.08-.12-.13-.02-.06-.04-.18-.04-.37v-2.34h.68v-.53h-.68v-1.4l-.67.41v.99h-.5v.53h.5v2.3c0,.41.03.67.08.8.05.13.15.23.29.31.14.08.33.12.57.12.15,0,.32-.02.51-.06l-.1-.6c-.12.02-.22.03-.3.03h0Zm1.64-4.16v-.78h-.68v.78h.68Zm0,4.74v-4h-.68v4h.68Zm1.3-.45c.35.36.8.54,1.36.54.35,0,.67-.08.97-.25s.52-.39.67-.69c.15-.29.23-.7.23-1.21,0-.64-.17-1.13-.52-1.49-.35-.36-.8-.54-1.35-.54-.5,0-.91.15-1.26.44-.41.36-.62.91-.62,1.65,0,.67.17,1.19.52,1.55h0Zm.51-2.7c.22-.25.51-.38.84-.38s.61.13.84.38c.22.26.34.63.34,1.12,0,.53-.11.92-.34,1.17-.22.26-.5.38-.84.38s-.62-.13-.84-.38c-.22-.25-.34-.64-.34-1.15,0-.51.11-.9.34-1.15h0Zm4.19,3.15v-2.19c0-.51.1-.86.31-1.04s.46-.28.75-.28c.18,0,.34.04.47.12.13.08.23.19.28.33.05.14.08.34.08.62v2.43h.68v-2.46c0-.31-.01-.53-.04-.66-.04-.19-.11-.36-.21-.5s-.25-.25-.45-.34c-.2-.09-.42-.13-.66-.13-.56,0-.98.22-1.27.66v-.57h-.61v4h.68Z"/>
      </g>
    </g>
  </g>
</svg>